<svg xmlns="http://www.w3.org/2000/svg" version="1.1" xmlns:xlink="http://www.w3.org/1999/xlink" xmlns:svgjs="http://svgjs.dev/svgjs" width="1000" height="623" viewBox="0 0 1000 623"><g transform="matrix(1,0,0,1,-0.6060606060606233,0.2522267206477409)"><svg viewBox="0 0 396 247" data-background-color="#4b91f1" preserveAspectRatio="xMidYMid meet" height="623" width="1000" xmlns="http://www.w3.org/2000/svg" xmlns:xlink="http://www.w3.org/1999/xlink"><g id="tight-bounds" transform="matrix(1,0,0,1,0.2400000000000091,-0.09999999999999432)"><svg viewBox="0 0 395.52 247.2" height="247.2" width="395.52"><g><svg></svg></g><g><svg viewBox="0 0 395.52 247.2" height="247.2" width="395.52"><g transform="matrix(1,0,0,1,109.54993807531379,47.215199999999996)"><svg viewBox="0 0 176.4201238493724 152.7696" height="152.7696" width="176.4201238493724"><g><svg viewBox="0 0 176.4201238493724 152.7696" height="152.7696" width="176.4201238493724"><g><svg viewBox="0 0 176.4201238493724 152.7696" height="152.7696" width="176.4201238493724"><g><svg viewBox="0 0 176.4201238493724 152.7696" height="152.7696" width="176.4201238493724"><g id="textblocktransform"><svg viewBox="0 0 176.4201238493724 152.7696" height="152.7696" width="176.4201238493724" id="textblock"><g><svg viewBox="0 0 176.4201238493724 152.7696" height="152.7696" width="176.4201238493724"><g transform="matrix(1,0,0,1,0,0)"><svg width="176.4201238493724" viewBox="1.399999976158142 -35.349998474121094 41.39999771118164 35.849998474121094" height="152.7696" data-palette-color="#77d4fc"><path d="M11.15 0.5L11.15 0.5Q8.45 0.5 6.25-0.85 4.05-2.2 2.73-4.48 1.4-6.75 1.4-9.55L1.4-9.55 1.4-25.4Q1.4-28.1 2.73-30.38 4.05-32.65 6.28-34 8.5-35.35 11.15-35.35L11.15-35.35Q13.9-35.35 16.13-34.02 18.35-32.7 19.65-30.45 20.95-28.2 20.95-25.4L20.95-25.4 20.95-23.1Q20.95-22.9 20.7-22.9L20.7-22.9 15.1-22.9Q14.9-22.9 14.9-23.1L14.9-23.1 14.9-25Q14.9-26.9 13.83-28.15 12.75-29.4 11.15-29.4L11.15-29.4Q9.7-29.4 8.58-28.2 7.45-27 7.45-25.4L7.45-25.4 7.45-9.55Q7.45-7.9 8.55-6.73 9.65-5.55 11.15-5.55L11.15-5.55Q12.75-5.55 13.83-6.7 14.9-7.85 14.9-9.55L14.9-9.55 14.9-12 11.4-12Q11.15-12 11.15-12.25L11.15-12.25 11.15-17.85Q11.15-18.1 11.4-18.1L11.4-18.1 20.75-18.1Q20.95-18.1 20.95-17.85L20.95-17.85 20.95-9.55Q20.95-6.75 19.63-4.48 18.3-2.2 16.1-0.85 13.9 0.5 11.15 0.5ZM33 0.5L33 0.5Q30.3 0.5 28.07-0.88 25.85-2.25 24.52-4.53 23.2-6.8 23.2-9.55L23.2-9.55 23.2-11.85Q23.2-12.1 23.45-12.1L23.45-12.1 29.05-12.1Q29.25-12.1 29.25-11.85L29.25-11.85 29.25-9.55Q29.25-7.9 30.35-6.73 31.45-5.55 33-5.55L33-5.55Q34.55-5.55 35.65-6.75 36.75-7.95 36.75-9.55L36.75-9.55Q36.75-11.4 34.35-12.75L34.35-12.75Q33.55-13.2 31.85-14.15 30.15-15.1 28.65-15.95L28.65-15.95Q25.9-17.55 24.57-19.98 23.25-22.4 23.25-25.45L23.25-25.45Q23.25-28.25 24.6-30.48 25.95-32.7 28.17-34 30.4-35.3 33-35.3L33-35.3Q35.65-35.3 37.87-33.98 40.1-32.65 41.42-30.43 42.75-28.2 42.75-25.45L42.75-25.45 42.75-21.35Q42.75-21.15 42.55-21.15L42.55-21.15 36.95-21.15Q36.75-21.15 36.75-21.35L36.75-21.35 36.7-25.45Q36.7-27.2 35.6-28.3 34.5-29.4 33-29.4L33-29.4Q31.45-29.4 30.35-28.23 29.25-27.05 29.25-25.45L29.25-25.45Q29.25-23.8 29.95-22.7 30.65-21.6 32.5-20.6L32.5-20.6Q32.75-20.45 33.47-20.08 34.2-19.7 35.05-19.23 35.9-18.75 36.57-18.4 37.25-18.05 37.4-17.95L37.4-17.95Q39.9-16.55 41.35-14.53 42.8-12.5 42.8-9.55L42.8-9.55Q42.8-6.7 41.47-4.42 40.15-2.15 37.92-0.83 35.7 0.5 33 0.5Z" opacity="1" transform="matrix(1,0,0,1,0,0)" fill="#77d4fc" class="wordmark-text-0" data-fill-palette-color="primary" id="text-0"></path></svg></g></svg></g></svg></g></svg></g></svg></g></svg></g></svg></g><path d="M103.669 41.215L103.669 0 350.869 0 350.869 247.2 103.669 247.2 103.669 205.985 117.446 205.985 117.446 233.423 337.092 233.423 337.092 13.777 117.446 13.777 117.446 41.215Z" fill="#77d4fc" stroke="transparent" data-fill-palette-color="primary"></path></svg></g><defs></defs></svg><rect width="395.52" height="247.2" fill="none" stroke="none" visibility="hidden"></rect></g></svg></g></svg>